<svg width="146" height="33" viewBox="0 0 146 33" fill="none" xmlns="http://www.w3.org/2000/svg">
<rect width="32.6441" height="32.6441" rx="1.20904" fill="#1C1C1E"/>
<path d="M27.8957 5.3418H4.74805V27.3024" stroke="#ECECEC" stroke-width="2.17627" stroke-linejoin="round"/>
<path d="M15.7284 25.9668L27.3022 25.9668L27.3022 9.52605" stroke="#ECECEC" stroke-width="2.17627" stroke-linejoin="round"/>
<path d="M11.1284 27.3025V22.695V20.052M11.1284 20.052V10.832H20.3281V20.052H11.1284Z" stroke="#ECECEC" stroke-width="2.17627" stroke-linejoin="round"/>
<path d="M38.7837 20.8223V11.5896H42.5976C43.2889 11.5896 43.8854 11.7248 44.3873 11.9953C44.8922 12.2628 45.2815 12.637 45.5549 13.1179C45.8284 13.5957 45.9652 14.1517 45.9652 14.7859C45.9652 15.423 45.8254 15.9805 45.5459 16.4584C45.2694 16.9332 44.8742 17.3014 44.3603 17.5629C43.8464 17.8244 43.2363 17.9551 42.53 17.9551H40.1767V16.1969H42.1152C42.4518 16.1969 42.7329 16.1383 42.9583 16.0211C43.1867 15.9039 43.3595 15.7401 43.4767 15.5297C43.5939 15.3163 43.6525 15.0684 43.6525 14.7859C43.6525 14.5004 43.5939 14.2539 43.4767 14.0465C43.3595 13.8362 43.1867 13.6739 42.9583 13.5597C42.7298 13.4454 42.4488 13.3883 42.1152 13.3883H41.0153V20.8223H38.7837ZM55.7794 16.2059C55.7794 17.2218 55.584 18.0828 55.1933 18.7891C54.8026 19.4954 54.2737 20.0318 53.6065 20.3985C52.9423 20.7652 52.1969 20.9485 51.3704 20.9485C50.5409 20.9485 49.7941 20.7637 49.1299 20.394C48.4657 20.0243 47.9382 19.4879 47.5475 18.7846C47.1598 18.0783 46.966 17.2188 46.966 16.2059C46.966 15.1901 47.1598 14.329 47.5475 13.6228C47.9382 12.9165 48.4657 12.38 49.1299 12.0134C49.7941 11.6467 50.5409 11.4634 51.3704 11.4634C52.1969 11.4634 52.9423 11.6467 53.6065 12.0134C54.2737 12.38 54.8026 12.9165 55.1933 13.6228C55.584 14.329 55.7794 15.1901 55.7794 16.2059ZM53.4983 16.2059C53.4983 15.6048 53.4126 15.0969 53.2413 14.6822C53.073 14.2674 52.8296 13.9534 52.511 13.74C52.1954 13.5266 51.8152 13.4199 51.3704 13.4199C50.9286 13.4199 50.5485 13.5266 50.2299 13.74C49.9113 13.9534 49.6664 14.2674 49.4951 14.6822C49.3268 15.0969 49.2426 15.6048 49.2426 16.2059C49.2426 16.807 49.3268 17.3149 49.4951 17.7297C49.6664 18.1444 49.9113 18.4585 50.2299 18.6719C50.5485 18.8853 50.9286 18.992 51.3704 18.992C51.8152 18.992 52.1954 18.8853 52.511 18.6719C52.8296 18.4585 53.073 18.1444 53.2413 17.7297C53.4126 17.3149 53.4983 16.807 53.4983 16.2059ZM57.0823 20.8223V11.5896H60.8961C61.5874 11.5896 62.184 11.7143 62.6859 11.9638C63.1908 12.2102 63.58 12.5649 63.8535 13.0277C64.127 13.4875 64.2637 14.033 64.2637 14.6641C64.2637 15.3043 64.124 15.8483 63.8445 16.2961C63.565 16.7409 63.1682 17.0805 62.6543 17.3149C62.1404 17.5464 61.5318 17.6621 60.8285 17.6621H58.4167V15.9039H60.4138C60.7504 15.9039 61.0314 15.8603 61.2568 15.7732C61.4852 15.683 61.658 15.5477 61.7752 15.3674C61.8924 15.1841 61.951 14.9497 61.951 14.6641C61.951 14.3786 61.8924 14.1427 61.7752 13.9564C61.658 13.767 61.4852 13.6258 61.2568 13.5326C61.0284 13.4364 60.7474 13.3883 60.4138 13.3883H59.3138V20.8223H57.0823ZM62.2801 16.6026L64.5793 20.8223H62.1449L59.8908 16.6026H62.2801ZM65.1856 13.4019V11.5896H72.9892V13.4019H70.1897V20.8223H67.9897V13.4019H65.1856ZM74.0791 20.8223V11.5896H80.3814V13.4019H76.3106V15.2953H79.9802V17.1121H76.3106V20.8223H74.0791ZM90.2193 16.2059C90.2193 17.2218 90.024 18.0828 89.6333 18.7891C89.2426 19.4954 88.7136 20.0318 88.0464 20.3985C87.3822 20.7652 86.6369 20.9485 85.8104 20.9485C84.9809 20.9485 84.234 20.7637 83.5698 20.394C82.9056 20.0243 82.3782 19.4879 81.9875 18.7846C81.5998 18.0783 81.4059 17.2188 81.4059 16.2059C81.4059 15.1901 81.5998 14.329 81.9875 13.6228C82.3782 12.9165 82.9056 12.38 83.5698 12.0134C84.234 11.6467 84.9809 11.4634 85.8104 11.4634C86.6369 11.4634 87.3822 11.6467 88.0464 12.0134C88.7136 12.38 89.2426 12.9165 89.6333 13.6228C90.024 14.329 90.2193 15.1901 90.2193 16.2059ZM87.9382 16.2059C87.9382 15.6048 87.8525 15.0969 87.6812 14.6822C87.5129 14.2674 87.2695 13.9534 86.9509 13.74C86.6354 13.5266 86.2552 13.4199 85.8104 13.4199C85.3686 13.4199 84.9884 13.5266 84.6698 13.74C84.3512 13.9534 84.1063 14.2674 83.935 14.6822C83.7667 15.0969 83.6825 15.6048 83.6825 16.2059C83.6825 16.807 83.7667 17.3149 83.935 17.7297C84.1063 18.1444 84.3512 18.4585 84.6698 18.6719C84.9884 18.8853 85.3686 18.992 85.8104 18.992C86.2552 18.992 86.6354 18.8853 86.9509 18.6719C87.2695 18.4585 87.5129 18.1444 87.6812 17.7297C87.8525 17.3149 87.9382 16.807 87.9382 16.2059ZM91.5222 20.8223V11.5896H93.7537V19.01H97.5946V20.8223H91.5222ZM100.981 11.5896V20.8223H98.7498V11.5896H100.981ZM111.097 16.2059C111.097 17.2218 110.901 18.0828 110.51 18.7891C110.12 19.4954 109.591 20.0318 108.924 20.3985C108.259 20.7652 107.514 20.9485 106.688 20.9485C105.858 20.9485 105.111 20.7637 104.447 20.394C103.783 20.0243 103.255 19.4879 102.865 18.7846C102.477 18.0783 102.283 17.2188 102.283 16.2059C102.283 15.1901 102.477 14.329 102.865 13.6228C103.255 12.9165 103.783 12.38 104.447 12.0134C105.111 11.6467 105.858 11.4634 106.688 11.4634C107.514 11.4634 108.259 11.6467 108.924 12.0134C109.591 12.38 110.12 12.9165 110.51 13.6228C110.901 14.329 111.097 15.1901 111.097 16.2059ZM108.815 16.2059C108.815 15.6048 108.73 15.0969 108.558 14.6822C108.39 14.2674 108.147 13.9534 107.828 13.74C107.513 13.5266 107.132 13.4199 106.688 13.4199C106.246 13.4199 105.866 13.5266 105.547 13.74C105.228 13.9534 104.983 14.2674 104.812 14.6822C104.644 15.0969 104.56 15.6048 104.56 16.2059C104.56 16.807 104.644 17.3149 104.812 17.7297C104.983 18.1444 105.228 18.4585 105.547 18.6719C105.866 18.8853 106.246 18.992 106.688 18.992C107.132 18.992 107.513 18.8853 107.828 18.6719C108.147 18.4585 108.39 18.1444 108.558 17.7297C108.73 17.3149 108.815 16.807 108.815 16.2059ZM112.399 20.8223V11.5896H116.213C116.904 11.5896 117.501 11.7248 118.003 11.9953C118.508 12.2628 118.897 12.637 119.171 13.1179C119.444 13.5957 119.581 14.1517 119.581 14.7859C119.581 15.423 119.441 15.9805 119.162 16.4584C118.885 16.9332 118.49 17.3014 117.976 17.5629C117.462 17.8244 116.852 17.9551 116.146 17.9551H113.792V16.1969H115.731C116.067 16.1969 116.348 16.1383 116.574 16.0211C116.802 15.9039 116.975 15.7401 117.092 15.5297C117.21 15.3163 117.268 15.0684 117.268 14.7859C117.268 14.5004 117.21 14.2539 117.092 14.0465C116.975 13.8362 116.802 13.6739 116.574 13.5597C116.345 13.4454 116.064 13.3883 115.731 13.3883H114.631V20.8223H112.399ZM120.681 20.8223V11.5896H122.912V19.01H126.753V20.8223H120.681ZM133.494 11.5896H135.721V17.5448C135.721 18.2331 135.557 18.8327 135.23 19.3436C134.902 19.8515 134.445 20.2452 133.859 20.5247C133.273 20.8012 132.592 20.9395 131.817 20.9395C131.033 20.9395 130.347 20.8012 129.761 20.5247C129.175 20.2452 128.72 19.8515 128.395 19.3436C128.071 18.8327 127.908 18.2331 127.908 17.5448V11.5896H130.14V17.351C130.14 17.6696 130.209 17.9536 130.347 18.203C130.489 18.4525 130.685 18.6478 130.938 18.7891C131.19 18.9304 131.483 19.001 131.817 19.001C132.151 19.001 132.442 18.9304 132.692 18.7891C132.944 18.6478 133.141 18.4525 133.282 18.203C133.423 17.9536 133.494 17.6696 133.494 17.351V11.5896ZM142.11 14.3576C142.08 14.027 141.946 13.77 141.709 13.5867C141.475 13.4004 141.139 13.3072 140.704 13.3072C140.415 13.3072 140.175 13.3448 139.982 13.4199C139.79 13.495 139.646 13.5987 139.55 13.731C139.453 13.8602 139.404 14.009 139.401 14.1773C139.395 14.3155 139.422 14.4372 139.482 14.5424C139.545 14.6476 139.635 14.7408 139.752 14.8219C139.873 14.9001 140.017 14.9692 140.185 15.0293C140.354 15.0894 140.543 15.142 140.753 15.1871L141.547 15.3674C142.004 15.4666 142.406 15.5988 142.755 15.7641C143.107 15.9294 143.401 16.1263 143.638 16.3547C143.879 16.5831 144.061 16.8461 144.184 17.1436C144.307 17.4412 144.37 17.7748 144.373 18.1444C144.37 18.7275 144.223 19.2279 143.932 19.6456C143.64 20.0634 143.221 20.3835 142.674 20.6059C142.13 20.8283 141.473 20.9395 140.704 20.9395C139.931 20.9395 139.258 20.8238 138.684 20.5924C138.11 20.3609 137.664 20.0093 137.345 19.5374C137.027 19.0656 136.863 18.469 136.854 17.7477H138.991C139.009 18.0453 139.088 18.2932 139.23 18.4916C139.371 18.6899 139.565 18.8402 139.811 18.9424C140.061 19.0446 140.349 19.0956 140.677 19.0956C140.977 19.0956 141.233 19.0551 141.443 18.9739C141.656 18.8928 141.82 18.7801 141.934 18.6358C142.049 18.4916 142.107 18.3263 142.11 18.1399C142.107 17.9656 142.053 17.8168 141.948 17.6936C141.843 17.5674 141.68 17.4592 141.461 17.369C141.245 17.2759 140.968 17.1902 140.632 17.1121L139.667 16.8867C138.867 16.7033 138.238 16.4073 137.778 15.9986C137.318 15.5868 137.09 15.0308 137.093 14.3305C137.09 13.7595 137.243 13.2591 137.553 12.8293C137.862 12.3996 138.29 12.0645 138.837 11.824C139.384 11.5836 140.008 11.4634 140.708 11.4634C141.423 11.4634 142.044 11.5851 142.57 11.8285C143.099 12.069 143.509 12.4071 143.801 12.8429C144.092 13.2786 144.241 13.7836 144.247 14.3576H142.11Z" fill="#ECECEC"/>
</svg>
