<svg width="145" height="33" viewBox="0 0 145 33" fill="none" xmlns="http://www.w3.org/2000/svg">
<rect y="0.177734" width="32.6441" height="32.6441" rx="1.20904" fill="#1C1C1E"/>
<path d="M27.8962 5.51953H4.74854V27.4801" stroke="#ECECEC" stroke-width="2.17627" stroke-linejoin="round"/>
<path d="M15.7288 26.1445L27.3026 26.1445L27.3026 9.70379" stroke="#ECECEC" stroke-width="2.17627" stroke-linejoin="round"/>
<path d="M11.129 27.4802V22.8728V20.2297M11.129 20.2297V11.0098H20.3287V20.2297H11.129Z" stroke="#ECECEC" stroke-width="2.17627" stroke-linejoin="round"/>
<path d="M38.3428 21V11.7673H42.1567C42.8479 11.7673 43.4445 11.9026 43.9464 12.1731C44.4513 12.4405 44.8405 12.8147 45.114 13.2956C45.3875 13.7735 45.5243 14.3295 45.5243 14.9636C45.5243 15.6008 45.3845 16.1583 45.105 16.6361C44.8285 17.111 44.4333 17.4791 43.9194 17.7406C43.4054 18.0021 42.7953 18.1328 42.0891 18.1328H39.7358V16.3747H41.6743C42.0109 16.3747 42.2919 16.316 42.5173 16.1988C42.7458 16.0816 42.9186 15.9178 43.0358 15.7074C43.153 15.4941 43.2116 15.2461 43.2116 14.9636C43.2116 14.6781 43.153 14.4316 43.0358 14.2243C42.9186 14.0139 42.7458 13.8516 42.5173 13.7374C42.2889 13.6232 42.0079 13.5661 41.6743 13.5661H40.5743V21H38.3428ZM55.3385 16.3837C55.3385 17.3995 55.1431 18.2606 54.7524 18.9668C54.3617 19.6731 53.8328 20.2096 53.1656 20.5762C52.5014 20.9429 51.756 21.1262 50.9295 21.1262C50.1 21.1262 49.3532 20.9414 48.689 20.5717C48.0248 20.2021 47.4973 19.6656 47.1066 18.9623C46.7189 18.256 46.5251 17.3965 46.5251 16.3837C46.5251 15.3678 46.7189 14.5068 47.1066 13.8005C47.4973 13.0942 48.0248 12.5578 48.689 12.1911C49.3532 11.8244 50.1 11.6411 50.9295 11.6411C51.756 11.6411 52.5014 11.8244 53.1656 12.1911C53.8328 12.5578 54.3617 13.0942 54.7524 13.8005C55.1431 14.5068 55.3385 15.3678 55.3385 16.3837ZM53.0574 16.3837C53.0574 15.7826 52.9717 15.2747 52.8004 14.8599C52.6321 14.4452 52.3887 14.1311 52.0701 13.9177C51.7545 13.7043 51.3743 13.5976 50.9295 13.5976C50.4877 13.5976 50.1075 13.7043 49.789 13.9177C49.4704 14.1311 49.2254 14.4452 49.0541 14.8599C48.8858 15.2747 48.8017 15.7826 48.8017 16.3837C48.8017 16.9848 48.8858 17.4927 49.0541 17.9074C49.2254 18.3222 49.4704 18.6362 49.789 18.8496C50.1075 19.063 50.4877 19.1697 50.9295 19.1697C51.3743 19.1697 51.7545 19.063 52.0701 18.8496C52.3887 18.6362 52.6321 18.3222 52.8004 17.9074C52.9717 17.4927 53.0574 16.9848 53.0574 16.3837ZM56.6413 21V11.7673H60.4552C61.1465 11.7673 61.743 11.8921 62.245 12.1415C62.7499 12.388 63.1391 12.7426 63.4126 13.2054C63.6861 13.6653 63.8228 14.2107 63.8228 14.8419C63.8228 15.482 63.683 16.026 63.4035 16.4738C63.124 16.9186 62.7273 17.2582 62.2134 17.4927C61.6995 17.7241 61.0909 17.8398 60.3876 17.8398H57.9757V16.0816H59.9728C60.3095 16.0816 60.5905 16.038 60.8159 15.9509C61.0443 15.8607 61.2171 15.7255 61.3343 15.5452C61.4515 15.3618 61.5101 15.1274 61.5101 14.8419C61.5101 14.5564 61.4515 14.3204 61.3343 14.1341C61.2171 13.9448 61.0443 13.8035 60.8159 13.7103C60.5875 13.6142 60.3065 13.5661 59.9728 13.5661H58.8729V21H56.6413ZM61.8392 16.7804L64.1384 21H61.704L59.4499 16.7804H61.8392ZM64.7447 13.5796V11.7673H72.5483V13.5796H69.7487V21H67.5488V13.5796H64.7447ZM73.6381 21V11.7673H79.9405V13.5796H75.8697V15.473H79.5393V17.2898H75.8697V21H73.6381ZM89.7784 16.3837C89.7784 17.3995 89.583 18.2606 89.1923 18.9668C88.8016 19.6731 88.2727 20.2096 87.6055 20.5762C86.9413 20.9429 86.1959 21.1262 85.3694 21.1262C84.5399 21.1262 83.7931 20.9414 83.1289 20.5717C82.4647 20.2021 81.9372 19.6656 81.5465 18.9623C81.1588 18.256 80.965 17.3965 80.965 16.3837C80.965 15.3678 81.1588 14.5068 81.5465 13.8005C81.9372 13.0942 82.4647 12.5578 83.1289 12.1911C83.7931 11.8244 84.5399 11.6411 85.3694 11.6411C86.1959 11.6411 86.9413 11.8244 87.6055 12.1911C88.2727 12.5578 88.8016 13.0942 89.1923 13.8005C89.583 14.5068 89.7784 15.3678 89.7784 16.3837ZM87.4973 16.3837C87.4973 15.7826 87.4116 15.2747 87.2403 14.8599C87.072 14.4452 86.8286 14.1311 86.51 13.9177C86.1944 13.7043 85.8142 13.5976 85.3694 13.5976C84.9276 13.5976 84.5475 13.7043 84.2289 13.9177C83.9103 14.1311 83.6654 14.4452 83.4941 14.8599C83.3258 15.2747 83.2416 15.7826 83.2416 16.3837C83.2416 16.9848 83.3258 17.4927 83.4941 17.9074C83.6654 18.3222 83.9103 18.6362 84.2289 18.8496C84.5475 19.063 84.9276 19.1697 85.3694 19.1697C85.8142 19.1697 86.1944 19.063 86.51 18.8496C86.8286 18.6362 87.072 18.3222 87.2403 17.9074C87.4116 17.4927 87.4973 16.9848 87.4973 16.3837ZM91.0813 21V11.7673H93.3128V19.1877H97.1537V21H91.0813ZM100.54 11.7673V21H98.3089V11.7673H100.54ZM110.656 16.3837C110.656 17.3995 110.46 18.2606 110.07 18.9668C109.679 19.6731 109.15 20.2096 108.483 20.5762C107.818 20.9429 107.073 21.1262 106.247 21.1262C105.417 21.1262 104.67 20.9414 104.006 20.5717C103.342 20.2021 102.814 19.6656 102.424 18.9623C102.036 18.256 101.842 17.3965 101.842 16.3837C101.842 15.3678 102.036 14.5068 102.424 13.8005C102.814 13.0942 103.342 12.5578 104.006 12.1911C104.67 11.8244 105.417 11.6411 106.247 11.6411C107.073 11.6411 107.818 11.8244 108.483 12.1911C109.15 12.5578 109.679 13.0942 110.07 13.8005C110.46 14.5068 110.656 15.3678 110.656 16.3837ZM108.374 16.3837C108.374 15.7826 108.289 15.2747 108.118 14.8599C107.949 14.4452 107.706 14.1311 107.387 13.9177C107.072 13.7043 106.691 13.5976 106.247 13.5976C105.805 13.5976 105.425 13.7043 105.106 13.9177C104.787 14.1311 104.543 14.4452 104.371 14.8599C104.203 15.2747 104.119 15.7826 104.119 16.3837C104.119 16.9848 104.203 17.4927 104.371 17.9074C104.543 18.3222 104.787 18.6362 105.106 18.8496C105.425 19.063 105.805 19.1697 106.247 19.1697C106.691 19.1697 107.072 19.063 107.387 18.8496C107.706 18.6362 107.949 18.3222 108.118 17.9074C108.289 17.4927 108.374 16.9848 108.374 16.3837ZM111.958 21V11.7673H115.772C116.464 11.7673 117.06 11.9026 117.562 12.1731C118.067 12.4405 118.456 12.8147 118.73 13.2956C119.003 13.7735 119.14 14.3295 119.14 14.9636C119.14 15.6008 119 16.1583 118.721 16.6361C118.444 17.111 118.049 17.4791 117.535 17.7406C117.021 18.0021 116.411 18.1328 115.705 18.1328H113.351V16.3747H115.29C115.627 16.3747 115.908 16.316 116.133 16.1988C116.361 16.0816 116.534 15.9178 116.651 15.7074C116.769 15.4941 116.827 15.2461 116.827 14.9636C116.827 14.6781 116.769 14.4316 116.651 14.2243C116.534 14.0139 116.361 13.8516 116.133 13.7374C115.905 13.6232 115.624 13.5661 115.29 13.5661H114.19V21H111.958ZM120.24 21V11.7673H122.471V19.1877H126.312V21H120.24ZM133.053 11.7673H135.28V17.7226C135.28 18.4108 135.116 19.0104 134.789 19.5213C134.461 20.0292 134.004 20.423 133.418 20.7025C132.832 20.979 132.152 21.1172 131.376 21.1172C130.592 21.1172 129.906 20.979 129.32 20.7025C128.734 20.423 128.279 20.0292 127.954 19.5213C127.63 19.0104 127.468 18.4108 127.468 17.7226V11.7673H129.699V17.5287C129.699 17.8473 129.768 18.1313 129.906 18.3808C130.048 18.6302 130.245 18.8256 130.497 18.9668C130.749 19.1081 131.043 19.1787 131.376 19.1787C131.71 19.1787 132.001 19.1081 132.251 18.9668C132.503 18.8256 132.7 18.6302 132.841 18.3808C132.983 18.1313 133.053 17.8473 133.053 17.5287V11.7673ZM141.669 14.5353C141.639 14.2047 141.506 13.9478 141.268 13.7644C141.034 13.5781 140.699 13.4849 140.263 13.4849C139.974 13.4849 139.734 13.5225 139.541 13.5976C139.349 13.6728 139.205 13.7765 139.109 13.9087C139.013 14.0379 138.963 14.1867 138.96 14.355C138.954 14.4933 138.981 14.615 139.041 14.7202C139.104 14.8254 139.194 14.9185 139.312 14.9997C139.432 15.0778 139.576 15.1469 139.744 15.207C139.913 15.2672 140.102 15.3197 140.312 15.3648L141.106 15.5452C141.563 15.6443 141.965 15.7766 142.314 15.9419C142.666 16.1072 142.96 16.304 143.198 16.5324C143.438 16.7608 143.62 17.0238 143.743 17.3214C143.866 17.6189 143.929 17.9525 143.932 18.3222C143.929 18.9052 143.782 19.4056 143.491 19.8234C143.199 20.2411 142.78 20.5612 142.233 20.7836C141.689 21.006 141.032 21.1172 140.263 21.1172C139.49 21.1172 138.817 21.0015 138.243 20.7701C137.669 20.5387 137.223 20.187 136.904 19.7152C136.586 19.2433 136.422 18.6468 136.413 17.9255H138.55C138.568 18.223 138.647 18.4709 138.789 18.6693C138.93 18.8677 139.124 19.0179 139.37 19.1201C139.62 19.2223 139.908 19.2734 140.236 19.2734C140.536 19.2734 140.792 19.2328 141.002 19.1517C141.215 19.0705 141.379 18.9578 141.494 18.8136C141.608 18.6693 141.666 18.504 141.669 18.3177C141.666 18.1433 141.612 17.9946 141.507 17.8714C141.402 17.7451 141.24 17.6369 141.02 17.5468C140.804 17.4536 140.527 17.3679 140.191 17.2898L139.226 17.0644C138.426 16.8811 137.797 16.585 137.337 16.1763C136.877 15.7645 136.649 15.2085 136.652 14.5083C136.649 13.9373 136.802 13.4368 137.112 13.0071C137.421 12.5773 137.849 12.2422 138.396 12.0018C138.943 11.7613 139.567 11.6411 140.267 11.6411C140.983 11.6411 141.603 11.7628 142.129 12.0063C142.658 12.2467 143.068 12.5848 143.36 13.0206C143.651 13.4564 143.8 13.9613 143.806 14.5353H141.669Z" fill="#1E1E1E"/>
</svg>
